<svg width="144" height="58" viewBox="0 0 144 58" fill="none" xmlns="http://www.w3.org/2000/svg">
<path d="M46.023 27.6243H35.7888C35.1819 27.6243 34.708 27.1975 34.708 26.6128V19.1221H31.582V26.6128C31.582 28.9074 33.472 30.753 35.7888 30.753H46.0702V35.9935H49.174V19.1221H46.0702C46.0702 21.9349 46.0258 24.8142 46.0258 27.6243H46.023Z" fill="#2E3192"/>
<path d="M15.6576 21.3668L21.843 35.7413H17.93L12.3293 22.7829H9.51649L6.64824 29.42H12.6203L13.945 32.5682H5.28756L3.91578 35.7413H0L6.18544 21.3668C6.83669 19.9257 7.75952 18.8033 9.42504 18.8255H12.4623C14.0808 18.8033 15.0258 19.9728 15.6576 21.3668ZM24.6753 35.7413H27.8234V18.8255H24.6753V35.7413ZM13.8785 40.7766H2.20315C1.57407 40.7766 1.05585 41.0233 0.651245 41.4279C0.268812 41.8103 0 42.3507 0 42.9576V43.9026H13.8785C14.4632 43.9026 14.9121 44.3737 14.9121 44.9612V48.3366C14.9121 48.9214 14.4632 49.4396 13.8785 49.4396H3.14815V45.5709H0V57.7173H3.17309V52.5434H10.7774L14.2415 57.673H17.9993L14.5131 52.4991C16.5389 52.2302 18.0908 50.4733 18.0908 48.3366V44.9612C18.0908 42.6223 16.1564 40.7766 13.884 40.7766H13.8785ZM21.7045 42.3729V43.9913V47.1394V50.3347V54.5415V56.1155V56.1239C21.71 56.9968 22.4278 57.7118 23.3007 57.7118H38.2378V54.5387H24.473L24.8526 54.3225V50.3347H38.2378V47.1394H24.8526V43.9913H38.2378V40.796H23.3007C22.4222 40.796 21.7045 41.5166 21.7045 42.3701V42.3729ZM53.8039 40.7988H50.7666C49.1011 40.7766 48.1811 41.9018 47.527 43.3401L41.3416 57.7146H45.2546L46.6264 54.5415H54.8598L53.5351 51.3933H47.9898L50.8581 44.7562H53.6709L59.2716 57.7146H63.1846L56.9992 43.3401C56.3701 41.9461 55.4251 40.7766 53.8039 40.7988ZM69.1207 53.9817V40.7988H65.9725V53.9817C65.9725 56.0075 67.638 57.648 69.6167 57.648H82.4393V54.4999H69.6167C69.3701 54.4999 69.1207 54.2533 69.1207 53.9817ZM99.2581 54.5332C98.5154 54.511 97.9528 54.2865 97.5926 53.6796C96.1293 50.2377 94.691 46.8873 93.2057 43.4454L93.1613 43.4232C91.9004 41.0621 90.4178 40.8127 88.3033 40.7683H85.0194V57.6397H88.3033V43.9414C89.204 43.9636 89.8552 44.0994 90.2598 44.8199C91.7452 48.2396 93.2057 51.6594 94.691 55.032C96.1072 57.6176 97.5704 57.6425 100.314 57.6425H102.495V40.7711H99.2553V54.5387L99.2581 54.5332ZM106.117 42.3396V56.3844L106.145 56.3677C106.28 57.1104 106.934 57.6785 107.716 57.6785H122.653V54.5054H109.268V50.2987H122.653V47.1034H109.268V43.9553H122.653V40.76H107.716C106.837 40.76 106.12 41.4805 106.12 42.3341L106.117 42.3396ZM126.452 40.7656V43.9386H133.674V57.6841H136.778V43.9386H144V40.7656H126.455H126.452Z" fill="#2E3192"/>
<path d="M122.788 32.5207C122.741 32.7368 122.699 32.9558 122.638 33.1664C122.112 35.0592 120.324 36.3229 118.354 36.2009C116.425 36.079 114.807 34.6102 114.508 32.6953C114.358 31.7309 114.527 30.8191 115.009 29.9656C115.023 29.9406 115.037 29.9185 115.051 29.8908C115.087 29.8243 115.067 29.7411 115.006 29.6968C114.99 29.6829 114.973 29.6718 114.957 29.6552C112.327 27.0308 109.699 24.4037 107.075 21.7738C106.959 21.6574 106.887 21.6463 106.737 21.7266C105.362 22.4693 103.982 22.461 102.605 21.7211C102.552 21.6934 102.5 21.6601 102.447 21.6324C102.442 21.6297 102.433 21.6297 102.458 21.6324C99.7479 24.3289 97.0459 27.0142 94.3467 29.6996C94.2996 29.7467 94.2885 29.8215 94.3217 29.8797C95.4968 31.9221 94.779 34.1696 93.3324 35.303C91.811 36.4974 89.6799 36.5002 88.1585 35.3141C86.7036 34.1779 85.9914 31.936 87.1553 29.8825C87.1941 29.8159 87.1747 29.7328 87.1137 29.6885C87.0999 29.6774 87.0832 29.6635 87.0694 29.6497C84.4672 27.0502 81.865 24.4508 79.2655 21.8458C79.1325 21.7128 78.9274 21.6823 78.7611 21.7682C77.4587 22.4416 76.1451 22.4389 74.8232 21.7738C74.7983 21.7627 74.7761 21.7488 74.7484 21.735C74.6902 21.7017 74.6153 21.7128 74.5682 21.7627C71.9023 24.4757 69.2391 27.186 66.5649 29.9074C66.5205 29.9545 66.5094 30.0238 66.5371 30.082C67.0914 31.1849 67.1856 32.3267 66.7533 33.4962C66.4069 34.4356 65.7861 35.1534 64.9187 35.655C63.1978 36.6471 61.0057 36.273 59.6977 34.7682C58.398 33.2745 58.3481 31.0519 59.5453 29.4889C60.7092 27.9703 63.1257 27.2248 65.2014 28.5772C65.2624 28.616 65.34 28.6077 65.3898 28.555C68.0142 25.8835 70.6414 23.212 73.238 20.571C73.2796 20.5267 73.2935 20.463 73.2685 20.4075C73.0912 19.9974 72.8944 19.615 72.7808 19.2103C72.4676 18.0963 72.6117 17.0211 73.1882 16.0123C73.2547 15.8959 73.2464 15.8322 73.1521 15.7407C70.4917 13.0886 67.8369 10.431 65.1792 7.77614C65.1765 7.77337 65.1737 7.7706 65.1709 7.76783C65.121 7.72072 65.049 7.71241 64.9908 7.74566C64.5529 7.99785 64.0873 8.17243 63.5858 8.26943C61.402 8.68789 59.1795 7.18587 58.7638 5.00212C58.3065 2.58835 59.8861 0.379662 62.3137 0.0360262C62.3331 0.033255 62.3553 0.0249412 62.3747 0.0138562C62.3941 0.00277118 62.4163 0 62.4385 0C62.7128 0 62.9899 0 63.2643 0C63.2865 0 63.3086 0.00554243 63.328 0.0138562C63.3474 0.02217 63.3668 0.033255 63.389 0.0360262C66.3903 0.4628 67.956 3.68854 66.4291 6.31015C66.4291 6.31015 66.4291 6.31292 66.4263 6.31569C66.393 6.37389 66.4041 6.44871 66.4512 6.49582C69.1255 9.17009 71.7914 11.8333 74.4602 14.502C74.5073 14.5491 74.5793 14.5602 74.6375 14.5269C76.0841 13.726 77.539 13.7316 78.9995 14.5546C79.0577 14.5879 79.1325 14.5768 79.1796 14.5297L87.1137 6.45703C87.1608 6.40991 87.1691 6.34063 87.1387 6.28244C87.1276 6.26304 87.1193 6.24364 87.1082 6.22424C85.7392 3.77999 87.0721 0.756553 89.8046 0.108079C89.9626 0.0720526 90.1205 0.0387976 90.2757 0.00554251C90.2868 0.00554251 90.2979 0.00277119 90.3062 0.00277119H91.1487C91.1708 0.00277119 91.193 0.00831375 91.2124 0.0166275C91.2318 0.0249413 91.2512 0.0360263 91.2734 0.0387975C94.2663 0.4628 95.8404 3.68854 94.3245 6.29629C94.319 6.30461 94.3162 6.31292 94.3107 6.32123C94.2802 6.37943 94.2913 6.45148 94.3384 6.49859C97.0154 9.17286 99.6786 11.8388 102.347 14.502C102.394 14.5491 102.469 14.5574 102.527 14.5242C104.337 13.4655 106.421 13.945 107.632 15.156C108.843 16.3643 109.325 18.4482 108.278 20.2385C108.245 20.2967 108.253 20.3715 108.303 20.4214C110.974 23.0929 113.64 25.7561 116.314 28.4303C116.362 28.4774 116.436 28.4885 116.497 28.4553C118.964 27.0225 122.045 28.3499 122.694 31.1267C122.73 31.2764 122.758 31.426 122.791 31.5757L122.785 32.5207H122.788ZM92.9029 28.4663C92.9638 28.5024 93.0387 28.4857 93.0858 28.4331C93.0913 28.4248 93.0996 28.4192 93.1052 28.4137C94.7485 26.7676 96.3946 25.1214 98.038 23.4753C99.0301 22.4832 100.019 21.4883 101.014 20.5018C101.139 20.377 101.136 20.2967 101.059 20.147C100.909 19.8533 100.776 19.5512 100.679 19.2381C100.621 19.0468 100.546 18.9942 100.352 18.9942C93.9449 18.9997 87.5349 18.9997 81.1278 18.9997C81.0807 18.9997 81.028 18.9859 80.9865 19.0025C80.9338 19.0247 80.8673 19.0607 80.8507 19.1078C80.6927 19.4986 80.5431 19.8921 80.399 20.2717C80.3768 20.3272 80.3906 20.3909 80.4322 20.4325C83.0815 23.0818 85.753 25.7505 88.4273 28.4248C88.4744 28.4719 88.5492 28.483 88.6074 28.4497C89.957 27.6682 91.5477 27.6876 92.9001 28.4691L92.9029 28.4663ZM88.358 7.74012C85.7059 10.4366 83.0594 13.1302 80.4405 15.7962C80.399 15.8377 80.3851 15.9042 80.4073 15.9597C80.5514 16.3088 80.701 16.6303 80.8008 16.9656C80.8618 17.1707 80.9449 17.215 81.1444 17.215C87.3271 17.2095 93.5125 17.2095 99.6952 17.2095C99.9391 17.2095 100.18 17.2012 100.424 17.2123C100.563 17.2178 100.613 17.1707 100.66 17.0377C100.776 16.7024 100.906 16.3698 101.064 16.0511C101.139 15.9015 101.131 15.8294 101.014 15.713C98.3872 13.0942 95.7656 10.4726 93.1412 7.8482C93.1301 7.83711 93.0969 7.80108 93.0858 7.78723C93.0414 7.72903 92.9638 7.70686 92.8973 7.74289C91.423 8.54378 89.9847 8.5327 88.5354 7.71518C88.4744 7.68192 88.3996 7.69024 88.3525 7.74012H88.358Z" fill="url(#paint0_linear_619_7397)"/>
<defs>
<linearGradient id="paint0_linear_619_7397" x1="58.6836" y1="18.1045" x2="122.791" y2="18.1045" gradientUnits="userSpaceOnUse">
<stop stop-color="#2E3192"/>
<stop offset="1" stop-color="#ED1C24"/>
</linearGradient>
</defs>
</svg>
